<svg id="Layer_1" xmlns="http://www.w3.org/2000/svg" viewBox="0 0 150 30"><style>.st0{fill:#231f20}</style><path class="st0" d="M45.3 19.4c-.8 1.1-1.8 1.6-3.3 1.6h-4V10h4c1.5 0 2.5.5 3.3 1.6.7.9.7 2.1.7 3.9 0 1.8 0 2.9-.7 3.9zm-1.9-6.8c-.4-.4-.9-.7-1.6-.7h-1.6V19h1.6c.7 0 1.2-.2 1.6-.7.4-.5.4-1.2.4-2.9 0-1.6 0-2.3-.4-2.8zM56 19.9c-.7.7-1.6 1.1-2.9 1.1-1.3 0-2.2-.4-2.9-1.1-1.1-1.1-1.1-2.3-1.1-4.4s0-3.3 1.1-4.4c.7-.7 1.7-1.1 2.9-1.1 1.3 0 2.2.4 2.9 1.1 1.1 1.1 1.1 2.3 1.1 4.4s0 3.3-1.1 4.4zm-1.5-7.4c-.3-.4-.8-.6-1.4-.6-.6 0-1.1.2-1.4.6-.4.5-.5 1-.5 3.1s.1 2.6.5 3c.3.4.8.6 1.4.6.6 0 1.1-.2 1.4-.6.4-.5.5-1 .5-3s-.1-2.7-.5-3.1zM64.5 21.1c-2.2 0-4-1.5-4-3.9V10h2.1v7.1c0 1.3.7 2 1.9 2s1.9-.8 1.9-2V10h2.1v7.2c.1 2.3-1.7 3.9-4 3.9zM76.8 21h-4.6V10h4.4c2.1 0 3.4 1.2 3.4 3.1 0 1.2-.8 2-1.4 2.3.7.3 1.5 1 1.5 2.5 0 2-1.4 3.1-3.3 3.1zm-.4-9.1h-2.1v2.5h2.1c.9 0 1.4-.5 1.4-1.3.1-.7-.5-1.2-1.4-1.2zm.2 4.5h-2.2v2.7h2.2c1 0 1.4-.6 1.4-1.4 0-.7-.5-1.3-1.4-1.3zM83.5 21V10h2.1v9.1h5V21h-7.1zM93.7 21V10h7.2v1.9h-5.1v2.6h4.3v1.9h-4.3v2.7h5.1V21h-7.2zM112.8 21.1c-1.7 0-2.9-.4-4-1.4l1.4-1.4c.7.7 1.6.9 2.6.9 1.3 0 2-.5 2-1.4 0-.4-.1-.7-.3-.9-.2-.2-.4-.3-1-.4l-1.3-.2c-1-.1-1.6-.4-2.1-.9s-.8-1.2-.8-2.2c0-2 1.4-3.3 3.8-3.3 1.5 0 2.6.4 3.5 1.3l-1.4 1.3c-.7-.7-1.5-.8-2.2-.8-1.1 0-1.7.6-1.7 1.4 0 .3.1.6.3.8.2.2.5.4 1 .4l1.3.2c1 .1 1.6.4 2.1.9.6.5.8 1.3.8 2.3.1 2.2-1.7 3.4-4 3.4zM126.5 21l-.6-1.9H122l-.7 1.9H119l4-11h1.7l4 11h-2.2zm-2.6-7.8l-1.4 4h2.7l-1.3-4zM133.8 11.9v2.7h4.3v1.9h-4.3V21h-2.1V10h7.2v1.9h-5.1zM142 21V10h7.2v1.9h-5.1v2.6h4.3v1.9h-4.3v2.7h5.1V21H142z"/><path fill="#008ccc" d="M16.2 6.8l-8 8-4.1-4-4 4 8.1 8.1 12-12.1z"/><path transform="rotate(-45.001 21.546 16.17)" fill="#076fa9" d="M13 13.3h17V19H13z"/></svg>